<svg width="363" height="363" viewBox="0 0 363 363" fill="none" xmlns="http://www.w3.org/2000/svg">
<path d="M90.75 34.0312C90.75 31.0227 89.5549 28.1374 87.4275 26.01C85.3001 23.8826 82.4148 22.6875 79.4063 22.6875C76.3977 22.6875 73.5124 23.8826 71.385 26.01C69.2576 28.1374 68.0625 31.0227 68.0625 34.0312V102.094C68.0598 115.169 72.5749 127.844 80.8434 137.973C89.112 148.102 100.626 155.063 113.438 157.678V328.969C113.438 331.977 114.633 334.863 116.76 336.99C118.887 339.117 121.773 340.312 124.781 340.312C127.79 340.312 130.675 339.117 132.802 336.99C134.93 334.863 136.125 331.977 136.125 328.969V157.678C148.936 155.063 160.45 148.102 168.719 137.973C176.988 127.844 181.503 115.169 181.5 102.094V34.0312C181.5 31.0227 180.305 28.1374 178.177 26.01C176.05 23.8826 173.165 22.6875 170.156 22.6875C167.148 22.6875 164.262 23.8826 162.135 26.01C160.008 28.1374 158.812 31.0227 158.812 34.0312V102.094C158.816 109.134 156.636 116.003 152.573 121.752C148.509 127.502 142.763 131.85 136.125 134.197V34.0312C136.125 31.0227 134.93 28.1374 132.802 26.01C130.675 23.8826 127.79 22.6875 124.781 22.6875C121.773 22.6875 118.887 23.8826 116.76 26.01C114.633 28.1374 113.438 31.0227 113.438 34.0312V134.197C106.8 131.85 101.053 127.502 96.9897 121.752C92.9264 116.003 90.7463 109.134 90.75 102.094V34.0312ZM249.562 328.969V181.5H215.531C212.523 181.5 209.637 180.305 207.51 178.177C205.383 176.05 204.188 173.165 204.188 170.156V79.4062C204.188 64.3644 211.584 50.2982 221.68 40.1796C231.798 30.0836 245.864 22.6875 260.906 22.6875C263.915 22.6875 266.8 23.8826 268.928 26.01C271.055 28.1374 272.25 31.0227 272.25 34.0312V328.969C272.25 331.977 271.055 334.863 268.928 336.99C266.8 339.117 263.915 340.312 260.906 340.312C257.898 340.312 255.012 339.117 252.885 336.99C250.758 334.863 249.562 331.977 249.562 328.969Z" fill="white"/>
</svg>
