<svg width="205" height="319" viewBox="0 0 205 319" fill="none" xmlns="http://www.w3.org/2000/svg">
<path d="M22.75 12.0312C22.75 9.0227 21.5549 6.13737 19.4275 4.01001C17.3001 1.88264 14.4148 0.6875 11.4063 0.6875C8.3977 0.6875 5.51238 1.88264 3.38501 4.01001C1.25764 6.13737 0.0625012 9.0227 0.0625012 12.0312V80.0938C0.0598325 93.1692 4.57485 105.844 12.8434 115.973C21.112 126.102 32.6263 133.063 45.4375 135.678V306.969C45.4375 309.977 46.6326 312.863 48.76 314.99C50.8874 317.117 53.7727 318.312 56.7812 318.312C59.7898 318.312 62.6751 317.117 64.8025 314.99C66.9299 312.863 68.125 309.977 68.125 306.969V135.678C80.9362 133.063 92.4505 126.102 100.719 115.973C108.988 105.844 113.503 93.1692 113.5 80.0938V12.0312C113.5 9.0227 112.305 6.13737 110.177 4.01001C108.05 1.88264 105.165 0.6875 102.156 0.6875C99.1477 0.6875 96.2624 1.88264 94.135 4.01001C92.0076 6.13737 90.8125 9.0227 90.8125 12.0312V80.0938C90.8162 87.1343 88.6361 94.0026 84.5728 99.7523C80.5095 105.502 74.7629 109.85 68.125 112.197V12.0312C68.125 9.0227 66.9299 6.13737 64.8025 4.01001C62.6751 1.88264 59.7898 0.6875 56.7812 0.6875C53.7727 0.6875 50.8874 1.88264 48.76 4.01001C46.6326 6.13737 45.4375 9.0227 45.4375 12.0312V112.197C38.7996 109.85 33.053 105.502 28.9897 99.7523C24.9264 94.0026 22.7463 87.1343 22.75 80.0938V12.0312ZM181.562 306.969V159.5H147.531C144.523 159.5 141.637 158.305 139.51 156.177C137.383 154.05 136.188 151.165 136.188 148.156V57.4062C136.188 42.3644 143.584 28.2982 153.68 18.1796C163.798 8.08363 177.864 0.6875 192.906 0.6875C195.915 0.6875 198.8 1.88264 200.928 4.01001C203.055 6.13737 204.25 9.0227 204.25 12.0312V306.969C204.25 309.977 203.055 312.863 200.928 314.99C198.8 317.117 195.915 318.312 192.906 318.312C189.898 318.312 187.012 317.117 184.885 314.99C182.758 312.863 181.562 309.977 181.562 306.969Z" fill="white"/>
</svg>
