<svg width="163" height="163" viewBox="0 0 163 163" fill="none" xmlns="http://www.w3.org/2000/svg">
<circle cx="81.5" cy="81.5" r="81.5" fill="#2E2E2E" fill-opacity="0.63"/>
<path d="M81.5009 54.9553L77.1181 50.417C66.8305 39.7641 47.9667 43.4403 41.1572 56.8334C37.9603 63.1328 37.239 72.2278 43.0766 83.8351C48.7003 95.0115 60.4 108.398 81.5009 122.98C102.602 108.398 114.296 95.0115 119.925 83.8351C125.763 72.2216 125.048 63.1328 121.845 56.8334C115.035 43.4403 96.1714 39.7579 85.8837 50.4108L81.5009 54.9553ZM81.5009 130.4C-12.2249 68.0097 52.643 19.3142 80.4251 45.0721C80.7919 45.4107 81.1525 45.7617 81.5009 46.125C81.8458 45.7621 82.2047 45.4129 82.5768 45.0782C110.353 19.3018 175.227 68.0036 81.5009 130.4Z" fill="white"/>
</svg>
