<svg width="201" height="201" viewBox="0 0 201 201" fill="none" xmlns="http://www.w3.org/2000/svg">
<path d="M100.5 108.875C114.376 108.875 125.625 97.6262 125.625 83.75C125.625 69.8738 114.376 58.625 100.5 58.625C86.6238 58.625 75.375 69.8738 75.375 83.75C75.375 97.6262 86.6238 108.875 100.5 108.875Z" stroke="#1CDECB" stroke-width="16.75" stroke-linecap="round" stroke-linejoin="round"/>
<path d="M100.5 16.75C82.7305 16.75 65.6888 23.8089 53.1238 36.3738C40.5589 48.9388 33.5 65.9805 33.5 83.75C33.5 99.5955 36.8667 109.964 46.0625 121.438L100.5 184.25L154.938 121.438C164.133 109.964 167.5 99.5955 167.5 83.75C167.5 65.9805 160.441 48.9388 147.876 36.3738C135.311 23.8089 118.27 16.75 100.5 16.75V16.75Z" stroke="#1CDECB" stroke-width="16.75" stroke-linecap="round" stroke-linejoin="round"/>
</svg>
