<svg width="512" height="512" viewBox="0 0 512 512" fill="none" xmlns="http://www.w3.org/2000/svg">
<path d="M468.479 361.5C459.407 357.267 448.118 352 427.425 352C406.732 352 395.442 357.268 386.372 361.5C378.59 365.131 372.444 368 358.849 368C345.254 368 339.11 365.132 331.329 361.5C322.258 357.268 310.97 352 290.277 352C269.584 352 258.296 357.269 249.226 361.5C241.445 365.131 235.3 368 221.707 368C208.114 368 201.97 365.132 194.19 361.5C185.12 357.268 173.832 352 153.14 352C132.448 352 121.159 357.269 112.089 361.5C104.308 365.131 98.163 368 84.57 368C70.977 368 64.832 365.132 57.051 361.5C47.981 357.269 36.692 352 16 352V384C29.593 384 35.738 386.868 43.519 390.5C52.589 394.732 63.878 400 84.57 400C105.262 400 116.551 394.731 125.621 390.5C133.402 386.869 139.547 384 153.14 384C166.733 384 172.877 386.868 180.657 390.5C189.727 394.732 201.015 400 221.707 400C242.399 400 253.688 394.731 262.758 390.5C270.539 386.869 276.685 384 290.277 384C303.869 384 310.016 386.868 317.797 390.5C326.868 394.732 338.156 400 358.849 400C379.542 400 390.832 394.732 399.903 390.5C407.684 386.869 413.831 384 427.425 384C441.019 384 447.166 386.868 454.946 390.5C464.018 394.733 475.307 400 496 400V368C482.406 368 476.259 365.132 468.479 361.5ZM427.425 448C406.732 448 395.442 453.268 386.372 457.5C378.59 461.131 372.444 464 358.849 464C345.254 464 339.11 461.132 331.329 457.5C322.258 453.268 310.97 448 290.277 448C269.584 448 258.296 453.269 249.226 457.5C241.445 461.131 235.3 464 221.707 464C208.114 464 201.97 461.132 194.19 457.5C185.12 453.268 173.832 448 153.14 448C132.448 448 121.159 453.269 112.089 457.5C104.308 461.131 98.163 464 84.57 464C70.977 464 64.832 461.132 57.051 457.5C47.981 453.269 36.692 448 16 448V480C29.593 480 35.738 482.868 43.519 486.5C52.589 490.732 63.878 496 84.57 496C105.262 496 116.551 490.731 125.621 486.5C133.402 482.869 139.547 480 153.14 480C166.733 480 172.877 482.868 180.657 486.5C189.727 490.732 201.015 496 221.707 496C242.399 496 253.688 490.731 262.758 486.5C270.539 482.869 276.685 480 290.277 480C303.869 480 310.016 482.868 317.797 486.5C326.868 490.732 338.156 496 358.849 496C379.542 496 390.832 490.732 399.903 486.5C407.684 482.869 413.831 480 427.425 480C441.019 480 447.166 482.868 454.946 486.5C464.018 490.733 475.307 496 496 496V464C482.406 464 476.259 461.132 468.479 457.5C459.407 453.268 448.118 448 427.425 448V448ZM248 272H392V328H424V115.878C423.987 106.166 426.934 96.6808 432.446 88.685L482.417 16H443.583L406.076 70.556C396.889 83.8827 391.979 99.6915 392 115.878V160H248V115.878C247.987 106.166 250.934 96.6808 256.446 88.685L306.417 16H267.583L230.076 70.556C220.889 83.8827 215.979 99.6915 216 115.878V328H248V272ZM248 192H392V240H248V192Z" fill="white"/>
</svg>
