<svg width="9" height="9" viewBox="0 0 9 9" fill="none" xmlns="http://www.w3.org/2000/svg">
<path d="M8.66741 3.01189L5.9823 2.62166L4.78199 0.188247C4.74921 0.121622 4.69527 0.0676868 4.62865 0.0349029C4.46155 -0.0475856 4.2585 0.0211548 4.17496 0.188247L2.97465 2.62166L0.289539 3.01189C0.215511 3.02247 0.147828 3.05737 0.0960085 3.11024C0.0333614 3.17463 -0.00116003 3.26126 2.97656e-05 3.35109C0.00121956 3.44092 0.0380232 3.5266 0.102354 3.58931L2.04506 5.48337L1.58609 8.15791C1.57533 8.22012 1.58221 8.28411 1.60596 8.34261C1.62971 8.40111 1.66938 8.45179 1.72047 8.48889C1.77156 8.526 1.83202 8.54804 1.895 8.55253C1.95798 8.55702 2.02096 8.54378 2.07679 8.5143L4.47847 7.25159L6.88016 8.5143C6.94573 8.5492 7.02187 8.56083 7.09484 8.54814C7.27885 8.51641 7.40259 8.34192 7.37086 8.15791L6.91189 5.48337L8.8546 3.58931C8.90747 3.53749 8.94237 3.46981 8.95295 3.39578C8.9815 3.21071 8.85248 3.03939 8.66741 3.01189Z" fill="#E4E699"/>
</svg>
